<mxfile host="app.diagrams.net" modified="2022-10-31T22:30:49.284Z" agent="5.0 (Windows NT 10.0; Win64; x64) AppleWebKit/537.36 (KHTML, like Gecko) Chrome/107.0.0.0 Safari/537.36" etag="xjnOKUYgJfAh6GsMynEM" version="20.5.1" type="github">
  <diagram id="X4VMHrq0wyg4YiiNbX0X" name="Page-1">
    <mxGraphModel dx="1641" dy="918" grid="1" gridSize="10" guides="1" tooltips="1" connect="1" arrows="1" fold="1" page="1" pageScale="1" pageWidth="850" pageHeight="1100" math="0" shadow="0">
      <root>
        <mxCell id="0" />
        <mxCell id="1" parent="0" />
        <mxCell id="NoiQ47ZX54XgdV5vE5NG-1" value="Actor" style="shape=umlActor;verticalLabelPosition=bottom;verticalAlign=top;html=1;outlineConnect=0;" vertex="1" parent="1">
          <mxGeometry x="45" y="680" width="30" height="60" as="geometry" />
        </mxCell>
        <mxCell id="NoiQ47ZX54XgdV5vE5NG-2" value="&lt;b&gt;create snapshot&lt;/b&gt;" style="rounded=1;whiteSpace=wrap;html=1;" vertex="1" parent="1">
          <mxGeometry x="10" y="600" width="120" height="20" as="geometry" />
        </mxCell>
        <mxCell id="NoiQ47ZX54XgdV5vE5NG-7" value="" style="endArrow=classic;html=1;rounded=0;exitX=0.5;exitY=0;exitDx=0;exitDy=0;exitPerimeter=0;entryX=0.431;entryY=0.966;entryDx=0;entryDy=0;entryPerimeter=0;" edge="1" parent="1" source="NoiQ47ZX54XgdV5vE5NG-1" target="NoiQ47ZX54XgdV5vE5NG-2">
          <mxGeometry width="50" height="50" relative="1" as="geometry">
            <mxPoint x="400" y="500" as="sourcePoint" />
            <mxPoint x="450" y="450" as="targetPoint" />
          </mxGeometry>
        </mxCell>
        <mxCell id="NoiQ47ZX54XgdV5vE5NG-8" value="" style="endArrow=classic;html=1;rounded=0;exitX=0.438;exitY=-0.12;exitDx=0;exitDy=0;exitPerimeter=0;" edge="1" parent="1" source="NoiQ47ZX54XgdV5vE5NG-2">
          <mxGeometry width="50" height="50" relative="1" as="geometry">
            <mxPoint x="400" y="500" as="sourcePoint" />
            <mxPoint x="63" y="550" as="targetPoint" />
          </mxGeometry>
        </mxCell>
        <mxCell id="NoiQ47ZX54XgdV5vE5NG-9" value="&lt;b&gt;save snapshot?&amp;nbsp;&lt;/b&gt;" style="rounded=1;whiteSpace=wrap;html=1;" vertex="1" parent="1">
          <mxGeometry x="10" y="530" width="120" height="20" as="geometry" />
        </mxCell>
        <mxCell id="NoiQ47ZX54XgdV5vE5NG-10" value="" style="endArrow=classic;html=1;rounded=0;exitX=1;exitY=0.5;exitDx=0;exitDy=0;" edge="1" parent="1" source="NoiQ47ZX54XgdV5vE5NG-9">
          <mxGeometry width="50" height="50" relative="1" as="geometry">
            <mxPoint x="400" y="500" as="sourcePoint" />
            <mxPoint x="230" y="540" as="targetPoint" />
          </mxGeometry>
        </mxCell>
        <mxCell id="NoiQ47ZX54XgdV5vE5NG-11" value="" style="endArrow=classic;html=1;rounded=0;exitX=0.5;exitY=0;exitDx=0;exitDy=0;" edge="1" parent="1" source="NoiQ47ZX54XgdV5vE5NG-9">
          <mxGeometry width="50" height="50" relative="1" as="geometry">
            <mxPoint x="110" y="390" as="sourcePoint" />
            <mxPoint x="70" y="490" as="targetPoint" />
          </mxGeometry>
        </mxCell>
        <mxCell id="NoiQ47ZX54XgdV5vE5NG-12" value="&lt;h1&gt;&lt;font style=&quot;font-size: 12px;&quot;&gt;Yes with INC&lt;/font&gt;&lt;/h1&gt;" style="text;html=1;strokeColor=none;fillColor=none;spacing=5;spacingTop=-20;whiteSpace=wrap;overflow=hidden;rounded=0;" vertex="1" parent="1">
          <mxGeometry x="130" y="500" width="90" height="40" as="geometry" />
        </mxCell>
        <mxCell id="NoiQ47ZX54XgdV5vE5NG-14" value="&lt;h1&gt;&lt;font style=&quot;font-size: 12px;&quot;&gt;No&lt;/font&gt;&lt;/h1&gt;" style="text;html=1;strokeColor=none;fillColor=none;spacing=5;spacingTop=-20;whiteSpace=wrap;overflow=hidden;rounded=0;" vertex="1" parent="1">
          <mxGeometry x="75" y="490" width="30" height="30" as="geometry" />
        </mxCell>
        <mxCell id="NoiQ47ZX54XgdV5vE5NG-16" value="&lt;b&gt;auto delete in 2d&lt;/b&gt;" style="rounded=1;whiteSpace=wrap;html=1;" vertex="1" parent="1">
          <mxGeometry x="20" y="465" width="120" height="20" as="geometry" />
        </mxCell>
        <mxCell id="NoiQ47ZX54XgdV5vE5NG-18" value="&lt;b&gt;save for &lt;font color=&quot;#ff0000&quot;&gt;x&lt;/font&gt; days&lt;/b&gt;" style="rounded=1;whiteSpace=wrap;html=1;" vertex="1" parent="1">
          <mxGeometry x="230" y="525" width="110" height="30" as="geometry" />
        </mxCell>
        <mxCell id="NoiQ47ZX54XgdV5vE5NG-29" value="" style="shape=image;html=1;verticalLabelPosition=bottom;verticalAlign=top;imageAspect=0;image=img/clipart/Gear_128x128.png;fontSize=12;fontColor=#FF0000;" vertex="1" parent="1">
          <mxGeometry x="420" y="510" width="70" height="70" as="geometry" />
        </mxCell>
        <mxCell id="NoiQ47ZX54XgdV5vE5NG-30" value="&lt;h1 style=&quot;&quot;&gt;&lt;span style=&quot;font-size: 12px;&quot;&gt;PCI snapshot check script&lt;/span&gt;&lt;/h1&gt;" style="text;html=1;strokeColor=none;fillColor=none;spacing=5;spacingTop=-20;whiteSpace=wrap;overflow=hidden;rounded=0;align=left;" vertex="1" parent="1">
          <mxGeometry x="380" y="565" width="171" height="60" as="geometry" />
        </mxCell>
        <mxCell id="NoiQ47ZX54XgdV5vE5NG-31" value="" style="shape=actor;whiteSpace=wrap;html=1;fontSize=12;fontColor=#FF0000;" vertex="1" parent="1">
          <mxGeometry x="265" y="720" width="40" height="60" as="geometry" />
        </mxCell>
        <mxCell id="NoiQ47ZX54XgdV5vE5NG-32" value="" style="shape=singleArrow;whiteSpace=wrap;html=1;fontSize=12;fontColor=#FF0000;" vertex="1" parent="1">
          <mxGeometry x="340" y="530" width="80" height="20" as="geometry" />
        </mxCell>
        <mxCell id="NoiQ47ZX54XgdV5vE5NG-35" value="" style="endArrow=classic;html=1;rounded=0;fontSize=12;fontColor=#FF0000;" edge="1" parent="1">
          <mxGeometry width="50" height="50" relative="1" as="geometry">
            <mxPoint x="500" y="545" as="sourcePoint" />
            <mxPoint x="620" y="545" as="targetPoint" />
          </mxGeometry>
        </mxCell>
        <mxCell id="NoiQ47ZX54XgdV5vE5NG-36" value="&lt;h1&gt;&lt;font style=&quot;font-size: 12px;&quot;&gt;whitelist empty&lt;/font&gt;&lt;/h1&gt;" style="text;html=1;strokeColor=none;fillColor=none;spacing=5;spacingTop=-20;whiteSpace=wrap;overflow=hidden;rounded=0;" vertex="1" parent="1">
          <mxGeometry x="510" y="510" width="100" height="40" as="geometry" />
        </mxCell>
        <mxCell id="NoiQ47ZX54XgdV5vE5NG-37" value="" style="verticalLabelPosition=bottom;verticalAlign=top;html=1;shape=mxgraph.basic.no_symbol;fontSize=12;fontColor=#CC0000;" vertex="1" parent="1">
          <mxGeometry x="620" y="525" width="40" height="40" as="geometry" />
        </mxCell>
        <mxCell id="NoiQ47ZX54XgdV5vE5NG-41" value="&lt;h1&gt;&lt;span style=&quot;font-size: 12px;&quot;&gt;empty csv sent&lt;/span&gt;&lt;/h1&gt;" style="text;html=1;strokeColor=none;fillColor=none;spacing=5;spacingTop=-20;whiteSpace=wrap;overflow=hidden;rounded=0;" vertex="1" parent="1">
          <mxGeometry x="600" y="555" width="140" height="40" as="geometry" />
        </mxCell>
      </root>
    </mxGraphModel>
  </diagram>
</mxfile>
